<svg xmlns="http://www.w3.org/2000/svg" width="149" height="149" viewBox="0 0 149 149"><circle cx="74.5" cy="74.5" r="74.5" fill="#043277"/><path d="M67,106.21H41.4v5.49H70.69c5.18,0,14-.23,14-9.19,0-8.2-5.34-9-13.53-9H50.44c-4.95,0-5.18-1.31-5.18-2.94v-.54c0-2.32.7-3.17,6.18-3.17h30.3V81.41H51.91c-10.13,0-13.14,2.08-13.14,8.34v.85c0,6,2.55,8.35,10,8.35h22.8c5.56,0,6.64.77,6.64,3.63v.31C78.26,106.37,74.78,106.21,67,106.21Z" transform="translate(-22 -21.9)" fill="#fff"/><rect x="70.79" y="59.74" width="6.34" height="29.99" fill="#fff"/><path d="M154.15,98.49V93.85c0-11.82-8.11-12.44-15.53-12.44H121.93c-7.27,0-14.69,1.47-14.69,12.29v5.64c0,11,7.58,12.44,14.14,12.44h29.68v-5.49H124.24c-8.26,0-10.66-1.62-10.66-7.34v-.46Zm-31.53-11.6H138.7c4.71,0,9,.85,9,5V93H113.66C114.2,87.82,115.67,86.89,122.62,86.89Z" transform="translate(-22 -21.9)" fill="#fff"/><path d="M95,119.74h1.86a2.31,2.31,0,0,1,2.24,2.32v1.85a2.24,2.24,0,0,1-2.24,2.24H95a2.24,2.24,0,0,1-2.24-2.24v-1.85A2.26,2.26,0,0,1,95,119.74Z" transform="translate(-22 -21.9)" fill="#fff"/><rect x="85.24" y="98.07" width="5.8" height="5.8" fill="#fff"/><path d="M84.68,122.91a3.29,3.29,0,1,0-3.25,3.32A3.27,3.27,0,0,0,84.68,122.91Z" transform="translate(-22 -21.9)" fill="#fff"/></svg>